<svg width="188" height="120" viewBox="0 0 188 120" fill="none" xmlns="http://www.w3.org/2000/svg">
<rect x="52.574" y="92.2665" width="22.1276" height="20.6127" rx="2" fill="#F4F4F4" stroke="#000716" stroke-width="2"/>
<rect x="37.2146" y="111.587" width="53.4891" height="7.41231" rx="2" fill="#F4F4F4" stroke="#000716" stroke-width="2"/>
<rect x="52.6575" y="93.1632" width="21.9654" height="2.82902" fill="#000716"/>
<rect x="3.7041" y="9" width="120" height="83.8531" rx="3" fill="#F2F8FD" stroke="#000716" stroke-width="2"/>
<path d="M3.7041 83.1953H123.704V89.8414C123.704 91.4982 122.361 92.8414 120.704 92.8414H6.7041C5.04724 92.8414 3.7041 91.4982 3.7041 89.8414V83.1953Z" fill="#F4F4F4" stroke="#000716" stroke-width="2"/>
<path d="M136.462 57.6403L119.9 31.5753L124.77 28.4809L141.332 54.5459L136.462 57.6403Z" fill="#F4F4F4" stroke="#000716" stroke-width="2" stroke-linecap="round" stroke-linejoin="round"/>
<path d="M114.142 16.8304C109.572 9.63814 104.667 4.57035 103.186 5.51115C101.706 6.45196 104.21 13.0451 108.78 20.2374C113.35 27.4296 118.255 32.4974 119.736 31.5566C121.216 30.6158 118.712 24.0226 114.142 16.8304Z" fill="#F4F4F4" stroke="#000716" stroke-width="2" stroke-linecap="round" stroke-linejoin="round"/>
<path d="M124.469 28.549L119.737 31.5558C121.218 30.615 118.714 24.0238 114.143 16.8296C109.572 9.63545 104.668 4.56959 103.188 5.51041L107.925 2.50041C109.405 1.55959 114.309 6.62545 118.88 13.8196C123.452 21.0138 125.955 27.605 124.474 28.5458" fill="#F4F4F4"/>
<path d="M124.469 28.549L119.737 31.5558C121.218 30.615 118.714 24.0238 114.143 16.8296C109.572 9.63545 104.668 4.56959 103.188 5.51041L107.925 2.50041C109.405 1.55959 114.309 6.62545 118.88 13.8196C123.452 21.0138 125.955 27.605 124.474 28.5458" stroke="#000716" stroke-width="2" stroke-linecap="round" stroke-linejoin="round"/>
<line x1="91.2453" y1="29.9769" x2="100.471" y2="25.1684" stroke="#000716" stroke-width="2"/>
<line y1="-1" x2="10.848" y2="-1" transform="matrix(0.993933 0.109989 0.0191352 0.999817 87.9695 18.1643)" stroke="#000716" stroke-width="2"/>
<line y1="-1" x2="10.848" y2="-1" transform="matrix(0.479115 -0.877752 -0.80862 -0.588332 99.9766 41.2015)" stroke="#000716" stroke-width="2"/>
<path d="M153.412 32.4482L158.637 31.256L167.836 60.8957L162.684 62.3284C158.672 60.3694 156.523 55.1597 154.142 46.8251C151.762 38.4904 152.06 33.6286 153.412 32.4482Z" fill="#000716"/>
<path d="M158.637 31.256L159.592 30.9596L159.318 30.075L158.415 30.281L158.637 31.256ZM153.412 32.4482L153.19 31.4733C153.029 31.51 152.879 31.5862 152.755 31.6948L153.412 32.4482ZM154.142 46.8251L153.181 47.0997L154.142 46.8251ZM162.684 62.3284L162.246 63.227C162.465 63.3343 162.717 63.3573 162.952 63.2918L162.684 62.3284ZM167.836 60.8957L168.104 61.8592L169.097 61.5832L168.791 60.5993L167.836 60.8957ZM158.415 30.281L153.19 31.4733L153.635 33.4231L158.86 32.2309L158.415 30.281ZM152.755 31.6948C152.191 32.1874 151.851 32.9476 151.649 33.7866C151.441 34.6487 151.35 35.7194 151.378 36.9762C151.434 39.4929 151.976 42.8804 153.181 47.0997L155.104 46.5504C153.928 42.4351 153.429 39.2244 153.377 36.9314C153.351 35.7834 153.439 34.8964 153.593 34.2545C153.753 33.5894 153.958 33.2993 154.07 33.2016L152.755 31.6948ZM153.181 47.0997C154.373 51.2741 155.528 54.7425 156.913 57.4262C158.302 60.1178 159.972 62.1171 162.246 63.227L163.123 61.4298C161.384 60.5807 159.974 58.9957 158.69 56.509C157.403 54.0144 156.292 50.7106 155.104 46.5504L153.181 47.0997ZM162.952 63.2918L168.104 61.8592L167.568 59.9323L162.416 61.365L162.952 63.2918ZM168.791 60.5993L159.592 30.9596L157.682 31.5524L166.881 61.1922L168.791 60.5993Z" fill="#000716"/>
<path d="M132.411 66.0569C128.691 66.7271 127.043 65.1071 126.636 64.0132C125.679 61.4437 127.595 60.0158 128.794 59.7054C127.084 59.8809 123.999 60.4069 123.056 57.682C122.112 54.957 125.693 53.6961 125.771 53.6898C123.726 54.3025 121.504 53.1146 121.131 51.2653C120.444 48.3811 124.693 47.259 124.693 47.259C124.693 47.259 120.756 47.2299 120.886 43.8286C120.562 40.1576 126.891 40.3786 130.064 40.0111C132.293 39.628 134.286 39.7358 134.286 39.7358C133.314 39.7565 130.646 39.6923 130.591 39.6732C131.069 38.7265 132.944 31.6488 137.724 33.9619C140.35 35.2317 143.631 36.4124 146.812 37.4423C151.196 36.3947 154.266 35.5017 157.755 34.2864C165.754 31.4999 174.781 36.7883 176.016 45.3039C176.748 50.3572 174.349 55.0841 169.565 56.6462C160.793 59.5105 147.399 62.7936 136.66 65.0101L132.411 66.0569Z" fill="#D6AA8A" stroke="#000716" stroke-width="2" stroke-linecap="round" stroke-linejoin="round"/>
<path d="M174.774 26.9464L154.917 32.2658L163.007 62.4617L182.863 57.1423" fill="#0972D3"/>
<path d="M174.774 26.9464L154.917 32.2658L163.007 62.4617L182.863 57.1423" stroke="#000716" stroke-width="2" stroke-linecap="round" stroke-linejoin="round"/>
<line x1="0.704102" y1="119" x2="127.704" y2="119" stroke="#000716" stroke-width="2"/>
<g clip-path="url(#clip0_1049_27192)">
<path d="M77.2691 31.9457C76.8864 31.9457 76.5184 31.974 76.1504 32.0022C73.854 27.3658 68.9375 24.1429 63.226 24.1429C56.8228 24.1429 51.391 28.1856 49.5657 33.7692C49.4479 33.7692 49.3155 33.755 49.1977 33.755C44.0603 33.755 39.8945 37.7554 39.8945 42.6887C39.8945 47.622 44.0603 51.6223 49.1977 51.6223H77.2691C82.9364 51.6223 87.5144 47.212 87.5144 41.784C87.5144 36.356 82.9217 31.9457 77.2691 31.9457Z" fill="white" stroke="#000716" stroke-width="2" stroke-linecap="square" stroke-linejoin="round"/>
<path d="M63.7131 67.1132V52.9777" stroke="#000716" stroke-width="2" stroke-linecap="square" stroke-linejoin="round"/>
<path d="M80.2903 67.1132V58.6319H72.9302V52.9777" stroke="#000716" stroke-width="2" stroke-linecap="square" stroke-linejoin="round"/>
<path d="M47.1396 67.1132V58.6319H54.4997V52.9777" stroke="#000716" stroke-width="2" stroke-linecap="square" stroke-linejoin="round"/>
<path d="M63.6997 69.8551C65.3256 69.8551 66.6437 68.5894 66.6437 67.028C66.6437 65.4667 65.3256 64.2009 63.6997 64.2009C62.0737 64.2009 60.7556 65.4667 60.7556 67.028C60.7556 68.5894 62.0737 69.8551 63.6997 69.8551Z" fill="#EC7211" stroke="#000716" stroke-width="2" stroke-linecap="square" stroke-linejoin="round"/>
<path d="M47.0795 69.8551C48.7055 69.8551 50.0236 68.5894 50.0236 67.028C50.0236 65.4667 48.7055 64.2009 47.0795 64.2009C45.4536 64.2009 44.1355 65.4667 44.1355 67.028C44.1355 68.5894 45.4536 69.8551 47.0795 69.8551Z" fill="#EC7211" stroke="#000716" stroke-width="2" stroke-linecap="square" stroke-linejoin="round"/>
<path d="M80.2873 69.8551C81.9132 69.8551 83.2313 68.5894 83.2313 67.028C83.2313 65.4667 81.9132 64.2009 80.2873 64.2009C78.6614 64.2009 77.3433 65.4667 77.3433 67.028C77.3433 68.5894 78.6614 69.8551 80.2873 69.8551Z" fill="#EC7211" stroke="#000716" stroke-width="2" stroke-linecap="square" stroke-linejoin="round"/>
</g>
<defs>
<clipPath id="clip0_1049_27192">
<rect width="50" height="48" fill="white" transform="translate(38.7041 23)"/>
</clipPath>
</defs>
</svg>
